# xmcd
#
# Track frame offsets: 
#        150
#        20013
#        38854
#        60136
#        76541
#        90066
#        110955
#        130172
#        146180
#        165998
#        185423
#        201729
#
# Disc length: 2868 seconds
#
# Revision: 0
# Processed by: cddbd v1.5.2PL0 Copyright (c) Steve Scherf et al.
# Submitted via: ExactAudioCopy v0.99pb3
#
DISCID=990b320c
DTITLE=Travis 'Moonchild' Haddix - Old Man In Love
DYEAR=2011
DGENRE=Blues
TTITLE0=She Hit A Grand Slam
TTITLE1=Old Man In Love
TTITLE2=Stankin' Thankin'
TTITLE3=Cialis Before I See Alice
TTITLE4=Two Steps From A Lie
TTITLE5=Break A Habit With A Habit
TTITLE6=Stiff Stuff
TTITLE7=Too Narrow
TTITLE8=Dreamed I Was Dreaming You
TTITLE9=Let Me Owe You One
TTITLE10=Stop Lying About Your Age
TTITLE11=Cix Spells Six
EXTD=
EXTT0=
EXTT1=
EXTT2=
EXTT3=
EXTT4=
EXTT5=
EXTT6=
EXTT7=
EXTT8=
EXTT9=
EXTT10=
EXTT11=
PLAYORDER=
